REM DIRINDEX 1\2,1\3,1\4,1\5
REM DIRNAME cjc093,folder01,folder02,folder03,folder04
TITLE ""
FILE "Round-04-086-087.mp3" MP3
  TRACK 01 AUDIO
    TITLE "0:"
    INDEX 01 00:00:00
  TRACK 02 AUDIO
    TITLE "2:cjc093_1022"
    INDEX 01 00:00:01
  TRACK 03 AUDIO
    TITLE "0:"
    INDEX 01 00:01:13
  TRACK 04 AUDIO
    TITLE "3:cjc093_1023"
    INDEX 01 00:01:60
  TRACK 05 AUDIO
    TITLE "0:"
    INDEX 01 00:04:15
  TRACK 06 AUDIO
    TITLE "4:cjc093_1024"
    INDEX 01 00:04:31
  TRACK 07 AUDIO
    TITLE "0:"
    INDEX 01 00:07:05
  TRACK 08 AUDIO
    TITLE "2:cjc093_1025"
    INDEX 01 00:08:38
  TRACK 09 AUDIO
    TITLE "0:"
    INDEX 01 00:09:34
  TRACK 10 AUDIO
    TITLE "3:cjc093_1026"
    INDEX 01 00:10:00
  TRACK 11 AUDIO
    TITLE "0:"
    INDEX 01 00:11:25
  TRACK 12 AUDIO
    TITLE "4:cjc093_1027"
    INDEX 01 00:11:48
  TRACK 13 AUDIO
    TITLE "0:"
    INDEX 01 00:13:63
  TRACK 14 AUDIO
    TITLE "2:cjc093_1028"
    INDEX 01 00:15:03
  TRACK 15 AUDIO
    TITLE "0:"
    INDEX 01 00:16:63
  TRACK 16 AUDIO
    TITLE "3:cjc093_1029"
    INDEX 01 00:17:35
  TRACK 17 AUDIO
    TITLE "0:"
    INDEX 01 00:20:24
  TRACK 18 AUDIO
    TITLE "4:cjc093_1030"
    INDEX 01 00:20:53
  TRACK 19 AUDIO
    TITLE "0:"
    INDEX 01 00:24:24
  TRACK 20 AUDIO
    TITLE "2:cjc093_1031"
    INDEX 01 00:25:37
  TRACK 21 AUDIO
    TITLE "0:"
    INDEX 01 00:26:48
  TRACK 22 AUDIO
    TITLE "3:cjc093_1032"
    INDEX 01 00:27:12
  TRACK 23 AUDIO
    TITLE "0:"
    INDEX 01 00:28:72
  TRACK 24 AUDIO
    TITLE "4:cjc093_1033"
    INDEX 01 00:29:36
  TRACK 25 AUDIO
    TITLE "0:"
    INDEX 01 00:32:58
  TRACK 26 AUDIO
    TITLE "3:cjc093_1034"
    INDEX 01 00:33:64
  TRACK 27 AUDIO
    TITLE "0:"
    INDEX 01 00:35:37
  TRACK 28 AUDIO
    TITLE "4:cjc093_1035"
    INDEX 01 00:35:64
  TRACK 29 AUDIO
    TITLE "0:"
    INDEX 01 00:39:64
  TRACK 30 AUDIO
    TITLE "2:cjc093_1036"
    INDEX 01 00:40:72
  TRACK 31 AUDIO
    TITLE "0:"
    INDEX 01 00:42:00
  TRACK 32 AUDIO
    TITLE "3:cjc093_1037"
    INDEX 01 00:42:41
  TRACK 33 AUDIO
    TITLE "0:"
    INDEX 01 00:43:70
  TRACK 34 AUDIO
    TITLE "4:cjc093_1038"
    INDEX 01 00:44:42
  TRACK 35 AUDIO
    TITLE "0:"
    INDEX 01 00:48:30
  TRACK 36 AUDIO
    TITLE "3:cjc093_1039"
    INDEX 01 00:49:41
  TRACK 37 AUDIO
    TITLE "0:"
    INDEX 01 00:51:24
  TRACK 38 AUDIO
    TITLE "4:cjc093_1040"
    INDEX 01 00:51:69
  TRACK 39 AUDIO
    TITLE "0:"
    INDEX 01 00:55:12
  TRACK 40 AUDIO
    TITLE "2:cjc093_1041"
    INDEX 01 00:56:25
  TRACK 41 AUDIO
    TITLE "0:"
    INDEX 01 00:57:31
  TRACK 42 AUDIO
    TITLE "3:cjc093_1042"
    INDEX 01 00:57:50
  TRACK 43 AUDIO
    TITLE "0:"
    INDEX 01 00:58:69
  TRACK 44 AUDIO
    TITLE "4:cjc093_1043"
    INDEX 01 00:59:57
  TRACK 45 AUDIO
    TITLE "0:"
    INDEX 01 01:03:10
  TRACK 46 AUDIO
    TITLE "3:cjc093_1044"
    INDEX 01 01:04:23
  TRACK 47 AUDIO
    TITLE "0:"
    INDEX 01 01:06:28
  TRACK 48 AUDIO
    TITLE "4:cjc093_1045"
    INDEX 01 01:06:57
  TRACK 49 AUDIO
    TITLE "0:"
    INDEX 01 01:09:34
  TRACK 50 AUDIO
    TITLE "3:cjc093_1046"
    INDEX 01 01:10:45
  TRACK 51 AUDIO
    TITLE "0:"
    INDEX 01 01:11:56
  TRACK 52 AUDIO
    TITLE "4:cjc093_1047"
    INDEX 01 01:12:23
  TRACK 53 AUDIO
    TITLE "0:"
    INDEX 01 01:15:25
  TRACK 54 AUDIO
    TITLE "2:cjc093_1048"
    INDEX 01 01:16:56
  TRACK 55 AUDIO
    TITLE "0:"
    INDEX 01 01:17:73
  TRACK 56 AUDIO
    TITLE "3:cjc093_1049"
    INDEX 01 01:18:41
  TRACK 57 AUDIO
    TITLE "0:"
    INDEX 01 01:19:66
  TRACK 58 AUDIO
    TITLE "4:cjc093_1050"
    INDEX 01 01:19:74
  TRACK 59 AUDIO
    TITLE "0:"
    INDEX 01 01:24:04
